<svg width="12" height="12" viewBox="0 0 12 12" fill="none" xmlns="http://www.w3.org/2000/svg">
<path fill-rule="evenodd" clip-rule="evenodd" d="M1.125 6C1.125 3.30852 3.30852 1.125 6 1.125C8.69148 1.125 10.875 3.30852 10.875 6C10.875 8.69148 8.69148 10.875 6 10.875C3.30852 10.875 1.125 8.69148 1.125 6ZM6 1.875C3.72273 1.875 1.875 3.72273 1.875 6C1.875 8.27727 3.72273 10.125 6 10.125C8.27727 10.125 10.125 8.27727 10.125 6C10.125 3.72273 8.27727 1.875 6 1.875Z" fill="#505050"/>
<path fill-rule="evenodd" clip-rule="evenodd" d="M6 2.625C6.20711 2.625 6.375 2.79289 6.375 3V6H8.25C8.45711 6 8.625 6.16789 8.625 6.375C8.625 6.58211 8.45711 6.75 8.25 6.75H6C5.79289 6.75 5.625 6.58211 5.625 6.375V3C5.625 2.79289 5.79289 2.625 6 2.625Z" fill="#505050"/>
</svg>
