<svg width="25" height="24" viewBox="0 0 25 24" fill="none" xmlns="http://www.w3.org/2000/svg">
<path d="M12.6361 2.25017C7.15267 2.17611 2.67611 6.65267 2.75017 12.1361C2.8233 17.395 7.10533 21.677 12.3642 21.7502C17.8486 21.8252 22.3242 17.3486 22.2492 11.8652C22.177 6.60533 17.895 2.3233 12.6361 2.25017ZM11.8491 11.2722L14.2655 8.50658C14.3964 8.35677 14.5815 8.26511 14.7799 8.25175C14.9784 8.23838 15.1741 8.30442 15.3239 8.43533C15.4737 8.56624 15.5654 8.7513 15.5788 8.94979C15.5921 9.14829 15.5261 9.34396 15.3952 9.49377L12.9788 12.2594C12.9139 12.3336 12.8352 12.3943 12.7469 12.438C12.6586 12.4817 12.5626 12.5076 12.4643 12.5142C12.366 12.5208 12.2674 12.508 12.1741 12.4765C12.0807 12.445 11.9945 12.3955 11.9203 12.3306C11.8462 12.2658 11.7855 12.187 11.7417 12.0988C11.698 12.0105 11.6721 11.9145 11.6655 11.8162C11.6589 11.7179 11.6717 11.6193 11.7032 11.5259C11.7347 11.4326 11.7843 11.3464 11.8491 11.2722ZM10.0275 15.5308C9.88688 15.6713 9.69619 15.7503 9.49736 15.7503C9.29853 15.7503 9.10784 15.6713 8.96721 15.5308L6.71955 13.2808C6.64993 13.2111 6.59471 13.1284 6.55706 13.0374C6.5194 12.9464 6.50004 12.8488 6.50009 12.7503C6.50013 12.6518 6.51958 12.5543 6.55731 12.4633C6.59505 12.3723 6.65033 12.2896 6.72002 12.22C6.7897 12.1504 6.87241 12.0952 6.96343 12.0575C7.05446 12.0199 7.152 12.0005 7.2505 12.0006C7.34901 12.0006 7.44654 12.02 7.53753 12.0578C7.62851 12.0955 7.71118 12.1508 7.7808 12.2205L10.0308 14.4705C10.1709 14.6116 10.2493 14.8025 10.2487 15.0013C10.248 15.2001 10.1685 15.3906 10.0275 15.5308ZM18.315 9.49377L13.0706 15.4938C13.0031 15.5712 12.9203 15.6339 12.8275 15.678C12.7347 15.7221 12.6338 15.7467 12.5311 15.7502H12.5058C12.4072 15.7502 12.3097 15.7308 12.2186 15.6931C12.1276 15.6553 12.0448 15.6 11.9752 15.5303L9.72799 13.2803C9.58738 13.1396 9.50844 12.9488 9.50853 12.7498C9.50861 12.5509 9.58772 12.3602 9.72845 12.2195C9.86919 12.0789 10.06 12 10.2589 12.0001C10.4579 12.0002 10.6486 12.0793 10.7892 12.22L12.1861 13.6183C12.2224 13.6546 12.2658 13.6831 12.3136 13.702C12.3614 13.7208 12.4125 13.7297 12.4638 13.728C12.5152 13.7262 12.5656 13.714 12.612 13.692C12.6584 13.67 12.6998 13.6387 12.7336 13.6L17.1867 8.50658C17.3176 8.35677 17.5027 8.26511 17.7012 8.25175C17.8997 8.23838 18.0954 8.30442 18.2452 8.43533C18.395 8.56624 18.4866 8.7513 18.5 8.94979C18.5134 9.14829 18.4473 9.34396 18.3164 9.49377H18.315Z" fill="#3AB72F"/>
</svg>
