<svg width="40" height="40" viewBox="0 0 40 40" fill="none" xmlns="http://www.w3.org/2000/svg">
<g filter="url(#filter0_dd_6316_6310)">
<g clip-path="url(#clip0_6316_6310)">
<circle cx="20" cy="19" r="15.75" fill="#FD6905" stroke="#FD6905" stroke-width="0.5"/>
<circle cx="20" cy="19" r="13.75" fill="white" stroke="#FD6905" stroke-width="0.5"/>
<g filter="url(#filter1_dd_6316_6310)">
<path d="M16.936 11.608C17.9081 11.208 18.9488 11.0014 20 11C21.048 11 22.088 11.208 23.064 11.608C24.032 12.008 24.912 12.6 25.656 13.344C26.4 14.088 26.992 14.968 27.392 15.936C27.792 16.912 28 17.952 28 19C28 21.12 27.16 23.16 25.656 24.656C24.914 25.3998 24.0324 25.9898 23.0618 26.3921C22.0912 26.7943 21.0507 27.0009 20 27C18.9488 26.9986 17.9081 26.792 16.936 26.392C15.9662 25.9895 15.0854 25.3996 14.344 24.656C13.6002 23.914 13.0102 23.0324 12.6079 22.0618C12.2057 21.0912 11.9991 20.0507 12 19C12 16.88 12.84 14.84 14.344 13.344C15.088 12.6 15.968 12.008 16.936 11.608ZM20 23L21.248 20.264L24 19L21.248 17.752L20 15L18.744 17.752L16 19L18.744 20.264L20 23Z" fill="#FD6905"/>
</g>
</g>
</g>
<defs>
<filter id="filter0_dd_6316_6310" x="0" y="0" width="40" height="40" filterUnits="userSpaceOnUse" color-interpolation-filters="sRGB">
<feFlood flood-opacity="0" result="BackgroundImageFix"/>
<feColorMatrix in="SourceAlpha" type="matrix" values="0 0 0 0 0 0 0 0 0 0 0 0 0 0 0 0 0 0 127 0" result="hardAlpha"/>
<feOffset dy="1"/>
<feGaussianBlur stdDeviation="2"/>
<feColorMatrix type="matrix" values="0 0 0 0 0 0 0 0 0 0 0 0 0 0 0 0 0 0 0.12 0"/>
<feBlend mode="normal" in2="BackgroundImageFix" result="effect1_dropShadow_6316_6310"/>
<feColorMatrix in="SourceAlpha" type="matrix" values="0 0 0 0 0 0 0 0 0 0 0 0 0 0 0 0 0 0 127 0" result="hardAlpha"/>
<feOffset/>
<feGaussianBlur stdDeviation="0.5"/>
<feColorMatrix type="matrix" values="0 0 0 0 0 0 0 0 0 0 0 0 0 0 0 0 0 0 0.039 0"/>
<feBlend mode="normal" in2="effect1_dropShadow_6316_6310" result="effect2_dropShadow_6316_6310"/>
<feBlend mode="normal" in="SourceGraphic" in2="effect2_dropShadow_6316_6310" result="shape"/>
</filter>
<filter id="filter1_dd_6316_6310" x="10.5" y="10" width="19" height="19" filterUnits="userSpaceOnUse" color-interpolation-filters="sRGB">
<feFlood flood-opacity="0" result="BackgroundImageFix"/>
<feColorMatrix in="SourceAlpha" type="matrix" values="0 0 0 0 0 0 0 0 0 0 0 0 0 0 0 0 0 0 127 0" result="hardAlpha"/>
<feOffset dy="0.5"/>
<feGaussianBlur stdDeviation="0.75"/>
<feColorMatrix type="matrix" values="0 0 0 0 0 0 0 0 0 0 0 0 0 0 0 0 0 0 0.12 0"/>
<feBlend mode="normal" in2="BackgroundImageFix" result="effect1_dropShadow_6316_6310"/>
<feColorMatrix in="SourceAlpha" type="matrix" values="0 0 0 0 0 0 0 0 0 0 0 0 0 0 0 0 0 0 127 0" result="hardAlpha"/>
<feOffset/>
<feGaussianBlur stdDeviation="0.5"/>
<feColorMatrix type="matrix" values="0 0 0 0 0 0 0 0 0 0 0 0 0 0 0 0 0 0 0.039 0"/>
<feBlend mode="normal" in2="effect1_dropShadow_6316_6310" result="effect2_dropShadow_6316_6310"/>
<feBlend mode="normal" in="SourceGraphic" in2="effect2_dropShadow_6316_6310" result="shape"/>
</filter>
<clipPath id="clip0_6316_6310">
<path d="M4 19C4 10.1634 11.1634 3 20 3C28.8366 3 36 10.1634 36 19C36 27.8366 28.8366 35 20 35C11.1634 35 4 27.8366 4 19Z" fill="white"/>
</clipPath>
</defs>
</svg>
