<svg width="10" height="10" viewBox="0 0 10 10" fill="none" xmlns="http://www.w3.org/2000/svg">
<g clip-path="url(#clip0_6918_9077)">
<path d="M5 4.99998C4.56735 4.99998 4.14442 4.87168 3.78469 4.63132C3.42496 4.39095 3.14458 4.04931 2.97901 3.6496C2.81345 3.24988 2.77013 2.81005 2.85453 2.38572C2.93894 1.96138 3.14728 1.57161 3.4532 1.26568C3.75913 0.959755 4.14891 0.751415 4.57324 0.66701C4.99757 0.582605 5.43741 0.625925 5.83712 0.791492C6.23683 0.957058 6.57847 1.23744 6.81884 1.59717C7.05921 1.9569 7.1875 2.37983 7.1875 2.81248C7.1875 3.39264 6.95703 3.94904 6.5468 4.35927C6.13656 4.76951 5.58016 4.99998 5 4.99998ZM5 5.62498C6.35586 5.62498 9.0625 6.46248 9.0625 8.12498V9.37498H0.9375V8.12498C0.9375 6.46248 3.64414 5.62498 5 5.62498Z" fill="#274FF5"/>
</g>
<defs>
<clipPath id="clip0_6918_9077">
<rect width="10" height="10" fill="white" transform="matrix(-1 0 0 1 10 0)"/>
</clipPath>
</defs>
</svg>
