<svg width="16" height="14" viewBox="0 0 16 14" fill="none" xmlns="http://www.w3.org/2000/svg">
<path d="M8.00039 13.75C7.77458 13.7497 7.55408 13.6815 7.36758 13.5542C4.60465 11.6786 3.40828 10.3926 2.7484 9.58855C1.34215 7.87469 0.668906 6.11512 0.68789 4.20965C0.710039 2.02609 2.46187 0.25 4.59305 0.25C6.14273 0.25 7.21605 1.12293 7.84113 1.84996C7.86093 1.87276 7.8854 1.89104 7.91287 1.90357C7.94035 1.9161 7.97019 1.92258 8.00039 1.92258C8.03059 1.92258 8.06043 1.9161 8.08791 1.90357C8.11538 1.89104 8.13985 1.87276 8.15965 1.84996C8.78473 1.12223 9.85805 0.25 11.4077 0.25C13.5389 0.25 15.2907 2.02609 15.3129 4.21C15.3319 6.11582 14.6579 7.87539 13.2524 9.58891C12.5925 10.3929 11.3961 11.6789 8.6332 13.5545C8.44666 13.6817 8.22616 13.7498 8.00039 13.75Z" fill="#FF2D55"/>
</svg>
