<svg width="14" height="13" viewBox="0 0 14 13" fill="none" xmlns="http://www.w3.org/2000/svg">
<path d="M1.31712 2.59892C1.18249 2.67556 1.07061 2.78657 0.992927 2.9206C0.915244 3.05464 0.87454 3.20689 0.874974 3.36181V11.4763C0.874485 11.6275 0.913177 11.7763 0.987278 11.908C1.06138 12.0398 1.16836 12.1502 1.29779 12.2283C1.42723 12.3064 1.5747 12.3497 1.72583 12.3538C1.87695 12.358 2.02658 12.323 2.16013 12.2521C2.17189 12.2458 2.18337 12.2392 2.19458 12.2319L4.49529 10.7266C4.52584 10.7067 4.55092 10.6794 4.56826 10.6473C4.5856 10.6152 4.59463 10.5793 4.59454 10.5428V0.769899C4.59466 0.73005 4.58388 0.690928 4.56338 0.656756C4.54288 0.622585 4.51344 0.594661 4.47823 0.576001C4.44302 0.557341 4.40338 0.548653 4.3636 0.550875C4.32381 0.553097 4.28539 0.566145 4.25247 0.58861L1.31712 2.59892Z" fill="white"/>
<path d="M5.80669 0.574664C5.77371 0.553225 5.73556 0.541077 5.69625 0.539498C5.65695 0.53792 5.61794 0.546969 5.58335 0.565694C5.54875 0.584419 5.51985 0.612126 5.49967 0.645898C5.4795 0.67967 5.46881 0.718257 5.46872 0.757594V10.5346C5.46864 10.5711 5.47767 10.607 5.49501 10.6391C5.51234 10.6712 5.53743 10.6985 5.56798 10.7184L8.19298 12.4252C8.22599 12.4467 8.26419 12.4589 8.30357 12.4605C8.34294 12.4621 8.38201 12.4531 8.41666 12.4343C8.4513 12.4155 8.48024 12.3877 8.50041 12.3539C8.52057 12.32 8.53122 12.2814 8.53122 12.242V2.47123C8.53133 2.43468 8.52227 2.39869 8.50489 2.36654C8.4875 2.3344 8.46233 2.30712 8.43169 2.2872L5.80669 0.574664Z" fill="white"/>
<path d="M12.702 0.770446C12.573 0.691527 12.4256 0.647777 12.2745 0.643556C12.1234 0.639334 11.9738 0.674787 11.8406 0.746383C11.8288 0.752436 11.8174 0.759193 11.8065 0.766618L9.50548 2.27052C9.47493 2.29045 9.44984 2.3177 9.43251 2.34979C9.41517 2.38188 9.40614 2.4178 9.40622 2.45427V12.2286C9.40608 12.2685 9.41684 12.3076 9.43736 12.3419C9.45787 12.3761 9.48735 12.404 9.5226 12.4227C9.55786 12.4414 9.59754 12.45 9.63737 12.4478C9.6772 12.4455 9.71565 12.4324 9.74857 12.4099L12.6763 10.4012C12.8125 10.3252 12.926 10.2141 13.0049 10.0795C13.0838 9.94486 13.1252 9.79159 13.125 9.63556V1.54181C13.1268 1.38771 13.0888 1.23575 13.0147 1.10062C12.9406 0.965496 12.8329 0.851772 12.702 0.770446Z" fill="white"/>
</svg>
