<svg width="18" height="22" viewBox="0 0 18 22" fill="none" xmlns="http://www.w3.org/2000/svg">
<path d="M17.6284 14.9989C17.5506 14.9052 17.4742 14.8114 17.3992 14.7209C16.3679 13.4736 15.744 12.7208 15.744 9.18969C15.744 7.36156 15.3067 5.86156 14.4447 4.73656C13.809 3.90547 12.9498 3.275 11.8173 2.80906C11.8027 2.80096 11.7897 2.79032 11.7789 2.77766C11.3715 1.41359 10.2568 0.5 8.99965 0.5C7.74246 0.5 6.62824 1.41359 6.2209 2.77625C6.21003 2.78845 6.1972 2.79875 6.18293 2.80672C3.54012 3.89469 2.25574 5.98203 2.25574 9.18828C2.25574 12.7208 1.63278 13.4736 0.600589 14.7195C0.525589 14.81 0.449183 14.9019 0.37137 14.9975C0.17037 15.2399 0.0430206 15.5348 0.004392 15.8473C-0.0342366 16.1598 0.017473 16.4769 0.153401 16.7609C0.44262 17.3703 1.05903 17.7486 1.76262 17.7486H16.2418C16.9422 17.7486 17.5543 17.3708 17.8445 16.7642C17.981 16.4801 18.0332 16.1628 17.9949 15.8499C17.9566 15.537 17.8294 15.2417 17.6284 14.9989Z" fill="#FD6905"/>
<path d="M8.99965 21.5C9.67701 21.4995 10.3416 21.3156 10.9229 20.9679C11.5042 20.6202 11.9806 20.1217 12.3015 19.5252C12.3166 19.4966 12.3241 19.4646 12.3232 19.4322C12.3223 19.3999 12.313 19.3684 12.2963 19.3407C12.2796 19.313 12.2561 19.2901 12.2279 19.2742C12.1997 19.2583 12.1679 19.25 12.1356 19.25H5.86465C5.83227 19.2499 5.80042 19.2582 5.77218 19.274C5.74395 19.2899 5.72031 19.3128 5.70355 19.3405C5.6868 19.3682 5.6775 19.3997 5.67657 19.4321C5.67564 19.4645 5.68311 19.4965 5.69825 19.5252C6.01912 20.1216 6.49543 20.6201 7.07666 20.9678C7.65788 21.3155 8.32237 21.4994 8.99965 21.5Z" fill="#FD6905"/>
</svg>
