<svg width="24" height="22" viewBox="0 0 24 22" fill="none" xmlns="http://www.w3.org/2000/svg">
<path fill-rule="evenodd" clip-rule="evenodd" d="M12.7133 1.01819C12.6129 0.709195 12.325 0.5 12.0001 0.5C11.6752 0.5 11.3872 0.709195 11.2868 1.01819L9.01769 8H1.50006C1.17137 8 0.880976 8.21402 0.783673 8.52798C0.68637 8.84193 0.804831 9.18266 1.07591 9.36855L7.17052 13.5477L4.82069 20.5102C4.71634 20.8193 4.82388 21.1605 5.08666 21.354C5.34944 21.5474 5.70715 21.5488 5.97139 21.3573L12.0001 16.9887L18.0287 21.3573C18.293 21.5488 18.6507 21.5474 18.9135 21.354C19.1762 21.1605 19.2838 20.8193 19.1794 20.5102L16.8296 13.5477L22.9242 9.36855C23.1953 9.18266 23.3137 8.84193 23.2164 8.52798C23.1191 8.21402 22.8287 8 22.5001 8H14.9824L12.7133 1.01819ZM12.0001 3.67651V15.3125C12.1545 15.3125 12.3089 15.3601 12.4401 15.4552L17.0072 18.7646L15.2269 13.4898C15.1196 13.1718 15.2366 12.8213 15.5134 12.6315L20.0801 9.5H14.4376C14.1127 9.5 13.8247 9.2908 13.7243 8.98181L12.0001 3.67651Z" fill="#FF9E1B"/>
</svg>
