<svg width="24" height="25" viewBox="0 0 24 25" fill="none" xmlns="http://www.w3.org/2000/svg">
<path fill-rule="evenodd" clip-rule="evenodd" d="M20.8125 15.5C21.382 15.5 21.8438 15.9617 21.8438 16.5312V18.6875C21.8438 19.6572 21.4585 20.5872 20.7729 21.2729C20.0872 21.9585 19.1572 22.3438 18.1875 22.3438H16.0312C15.4617 22.3438 15 21.882 15 21.3125C15 20.743 15.4617 20.2812 16.0312 20.2812H18.1875C18.6102 20.2812 19.0156 20.1133 19.3145 19.8145C19.6133 19.5156 19.7812 19.1102 19.7812 18.6875V16.5312C19.7812 15.9617 20.243 15.5 20.8125 15.5Z" fill="#FD6905" fill-opacity="0.93"/>
<path fill-rule="evenodd" clip-rule="evenodd" d="M15 3.6875C15 3.11796 15.4617 2.65625 16.0312 2.65625H18.1875C19.1572 2.65625 20.0872 3.04146 20.7729 3.72714C21.4585 4.41282 21.8438 5.3428 21.8438 6.3125V8.46875C21.8438 9.03829 21.382 9.5 20.8125 9.5C20.243 9.5 19.7812 9.03829 19.7812 8.46875V6.3125C19.7812 5.88981 19.6133 5.48443 19.3145 5.18555C19.0156 4.88666 18.6102 4.71875 18.1875 4.71875H16.0312C15.4617 4.71875 15 4.25704 15 3.6875Z" fill="#FD6905" fill-opacity="0.93"/>
<path fill-rule="evenodd" clip-rule="evenodd" d="M3.1875 15.5C3.75704 15.5 4.21875 15.9617 4.21875 16.5312V18.6875C4.21875 19.1102 4.38666 19.5156 4.68555 19.8145C4.98443 20.1133 5.38981 20.2812 5.8125 20.2812H7.96875C8.53829 20.2812 9 20.743 9 21.3125C9 21.882 8.53829 22.3438 7.96875 22.3438H5.8125C4.8428 22.3438 3.91282 21.9585 3.22714 21.2729C2.54146 20.5872 2.15625 19.6572 2.15625 18.6875V16.5312C2.15625 15.9617 2.61796 15.5 3.1875 15.5Z" fill="#FD6905" fill-opacity="0.93"/>
<path fill-rule="evenodd" clip-rule="evenodd" d="M5.8125 4.71875C5.38981 4.71875 4.98444 4.88666 4.68555 5.18555C4.38666 5.48444 4.21875 5.88981 4.21875 6.3125V8.46875C4.21875 9.03829 3.75704 9.5 3.1875 9.5C2.61796 9.5 2.15625 9.03829 2.15625 8.46875V6.3125C2.15625 5.3428 2.54146 4.41282 3.22714 3.72714C3.91282 3.04146 4.8428 2.65625 5.8125 2.65625H7.96875C8.53829 2.65625 9 3.11796 9 3.6875C9 4.25704 8.53829 4.71875 7.96875 4.71875H5.8125Z" fill="#FD6905" fill-opacity="0.93"/>
</svg>
