<svg width="12" height="12" viewBox="0 0 12 12" fill="none" xmlns="http://www.w3.org/2000/svg">
<g clip-path="url(#clip0_6918_9048)">
<path fill-rule="evenodd" clip-rule="evenodd" d="M10.0411 2.48916L5.75489 6.77541L7.13331 10.1722L10.0411 2.48916ZM5.22454 6.2451L9.51081 1.95883L1.82619 4.86726L5.22454 6.2451ZM11.212 1.51427L7.66429 10.888C7.66379 10.8894 7.66327 10.8907 7.66275 10.8921C7.66256 10.8925 7.66237 10.893 7.66218 10.8935C7.61984 11.0003 7.54582 11.0916 7.45005 11.1551C7.35429 11.2185 7.24138 11.2512 7.12652 11.2486C7.01166 11.246 6.90035 11.2083 6.80756 11.1405C6.71819 11.0752 6.65013 10.9851 6.61177 10.8816L5.03484 6.99561C5.03187 6.98828 5.02913 6.98086 5.02662 6.97335C5.01915 6.97086 5.01176 6.96813 5.00447 6.96517L1.11988 5.39019C1.01587 5.35244 0.925199 5.2848 0.859338 5.19561C0.790461 5.10234 0.752089 4.99007 0.749472 4.87415C0.746855 4.75824 0.780121 4.64435 0.844719 4.54807C0.909316 4.45178 1.00209 4.37782 1.11034 4.33628L1.11193 4.33568L10.4857 0.787941C10.486 0.787834 10.4863 0.787728 10.4865 0.787621C10.5878 0.749088 10.698 0.7406 10.8039 0.763187C10.9102 0.785837 11.0076 0.838765 11.0844 0.915577C11.1612 0.992387 11.2141 1.0898 11.2368 1.19604C11.2594 1.30191 11.2509 1.41204 11.2124 1.51321C11.2123 1.51356 11.2122 1.51392 11.212 1.51427Z" fill="#505050"/>
</g>
<defs>
<clipPath id="clip0_6918_9048">
<rect width="12" height="12" fill="white"/>
</clipPath>
</defs>
</svg>
