<svg width="22" height="22" viewBox="0 0 22 22" fill="none" xmlns="http://www.w3.org/2000/svg">
<path d="M17.1875 4.8125H4.8125C4.05311 4.8125 3.4375 5.42811 3.4375 6.1875V11.6875C3.4375 12.4469 4.05311 13.0625 4.8125 13.0625H17.1875C17.9469 13.0625 18.5625 12.4469 18.5625 11.6875V6.1875C18.5625 5.42811 17.9469 4.8125 17.1875 4.8125Z" stroke="#1570EF" stroke-width="1.5" stroke-linecap="round" stroke-linejoin="round"/>
<path d="M17.1875 13.0625H4.8125C4.05311 13.0625 3.4375 13.6781 3.4375 14.4375V17.1875C3.4375 17.9469 4.05311 18.5625 4.8125 18.5625H17.1875C17.9469 18.5625 18.5625 17.9469 18.5625 17.1875V14.4375C18.5625 13.6781 17.9469 13.0625 17.1875 13.0625Z" stroke="#1570EF" stroke-width="1.5" stroke-linecap="round" stroke-linejoin="round"/>
<path d="M17.1875 4.8125H4.8125C4.44814 4.81148 4.099 4.66629 3.84136 4.40864C3.58371 4.151 3.43852 3.80186 3.4375 3.4375C3.43852 3.07314 3.58371 2.724 3.84136 2.46636C4.099 2.20871 4.44814 2.06352 4.8125 2.0625H17.1875C17.5519 2.06352 17.901 2.20871 18.1586 2.46636C18.4163 2.724 18.5615 3.07314 18.5625 3.4375C18.5615 3.80186 18.4163 4.151 18.1586 4.40864C17.901 4.66629 17.5519 4.81148 17.1875 4.8125ZM6.1875 18.5625V19.5078C6.1875 19.6218 6.14223 19.7311 6.06165 19.8116C5.98107 19.8922 5.87177 19.9375 5.75781 19.9375H4.55469C4.44073 19.9375 4.33143 19.8922 4.25085 19.8116C4.17027 19.7311 4.125 19.6218 4.125 19.5078V18.5625H6.1875ZM17.875 18.5625V19.5078C17.875 19.6218 17.8297 19.7311 17.7491 19.8116C17.6686 19.8922 17.5593 19.9375 17.4453 19.9375H16.2422C16.1282 19.9375 16.0189 19.8922 15.9384 19.8116C15.8578 19.7311 15.8125 19.6218 15.8125 19.5078V18.5625H17.875Z" stroke="#274FF5" stroke-width="1.5" stroke-linecap="round" stroke-linejoin="round"/>
<path d="M15.8125 16.5C16.1922 16.5 16.5 16.1922 16.5 15.8125C16.5 15.4328 16.1922 15.125 15.8125 15.125C15.4328 15.125 15.125 15.4328 15.125 15.8125C15.125 16.1922 15.4328 16.5 15.8125 16.5Z" stroke="#274FF5" stroke-width="1.5" stroke-linejoin="round"/>
<path d="M6.1875 16.5C6.5672 16.5 6.875 16.1922 6.875 15.8125C6.875 15.4328 6.5672 15.125 6.1875 15.125C5.8078 15.125 5.5 15.4328 5.5 15.8125C5.5 16.1922 5.8078 16.5 6.1875 16.5Z" stroke="#1570EF" stroke-width="1.5" stroke-linejoin="round"/>
<path d="M11 4.8125V13.0625V4.8125ZM3.4375 3.4375V15.8125V3.4375ZM18.5625 3.4375V15.8125V3.4375Z" fill="#274FF5"/>
<path d="M11 4.8125V13.0625M3.4375 3.4375V15.8125M18.5625 3.4375V15.8125" stroke="#1570EF" stroke-width="1.5" stroke-linecap="round" stroke-linejoin="round"/>
</svg>
