<svg width="16" height="14" viewBox="0 0 16 14" fill="none" xmlns="http://www.w3.org/2000/svg">
<path d="M7.99999 13.75C7.77851 13.75 7.56054 13.6832 7.36718 13.5531C6.0453 12.6566 4.12577 11.268 2.74765 9.5875C1.3414 7.87539 0.666397 6.11406 0.687491 4.20859C0.708585 2.02539 2.46288 0.25 4.59335 0.25C6.28437 0.25 7.40585 1.28711 7.99999 2.04297C8.59413 1.28711 9.71562 0.25 11.4066 0.25C13.5371 0.25 15.2879 2.02539 15.3125 4.20859C15.3301 6.11406 14.6586 7.87539 13.2523 9.5875C11.8742 11.268 9.95468 12.6566 8.6328 13.5531C8.43944 13.6867 8.22148 13.75 7.99999 13.75ZM4.59335 1.375C3.07812 1.375 1.83007 2.65117 1.81249 4.22266C1.77382 7.9 4.9203 10.5367 7.99999 12.625C11.0797 10.5332 14.2262 7.9 14.1875 4.22266C14.1699 2.65469 12.9254 1.375 11.4066 1.375C9.50819 1.375 8.50976 3.29453 8.50272 3.31562C8.4078 3.50547 8.21444 3.625 7.99999 3.625C7.78554 3.625 7.59218 3.50547 7.49726 3.31211C7.48671 3.29453 6.48827 1.375 4.59335 1.375Z" fill="#FF2D55"/>
</svg>
