<svg width="24" height="24" viewBox="0 0 24 24" fill="none" xmlns="http://www.w3.org/2000/svg">
<path d="M18.3286 22.4996C17.4136 22.4996 16.1283 22.1686 14.2036 21.0933C11.8632 19.7808 10.0529 18.5691 7.72505 16.2474C5.48068 14.0044 4.38849 12.5522 2.8599 9.77066C1.13302 6.63003 1.4274 4.98378 1.75646 4.28019C2.14834 3.43925 2.72677 2.93628 3.47443 2.43707C3.89909 2.15883 4.34849 1.92032 4.81693 1.72457C4.86381 1.70441 4.9074 1.68519 4.94631 1.66785C5.17834 1.56332 5.5299 1.40535 5.97521 1.5741C6.2724 1.68566 6.53771 1.91394 6.95302 2.3241C7.80474 3.1641 8.96865 5.03488 9.39802 5.95363C9.68631 6.57285 9.87709 6.9816 9.87755 7.44003C9.87755 7.97675 9.60756 8.39066 9.2799 8.83738C9.21849 8.92128 9.15755 9.00144 9.09849 9.07925C8.74177 9.548 8.66349 9.68347 8.71505 9.92535C8.81959 10.4114 9.59912 11.8585 10.8802 13.1368C12.1613 14.415 13.5666 15.1453 14.0546 15.2494C14.3068 15.3033 14.4451 15.2218 14.9288 14.8524C14.9982 14.7994 15.0694 14.7446 15.144 14.6897C15.6436 14.318 16.0383 14.055 16.5624 14.055H16.5652C17.0213 14.055 17.4118 14.2528 18.0586 14.5791C18.9024 15.0047 20.8294 16.1536 21.6746 17.0063C22.0857 17.4207 22.3149 17.685 22.4269 17.9818C22.5957 18.4285 22.4368 18.7786 22.3332 19.013C22.3158 19.0519 22.2966 19.0946 22.2765 19.1419C22.0792 19.6095 21.8392 20.058 21.5597 20.4816C21.0615 21.2269 20.5566 21.8039 19.7138 22.1963C19.281 22.401 18.8074 22.5047 18.3286 22.4996Z" fill="white"/>
</svg>
