<svg width="13" height="12" viewBox="0 0 13 12" fill="none" xmlns="http://www.w3.org/2000/svg">
<path d="M9.66432 11.2498C9.20682 11.2498 8.56417 11.0843 7.60182 10.5466C6.43159 9.89039 5.52643 9.28453 4.36253 8.12367C3.24034 7.00219 2.69425 6.2761 1.92995 4.88531C1.06651 3.315 1.2137 2.49188 1.37823 2.14008C1.57417 1.71961 1.86339 1.46813 2.23722 1.21852C2.44955 1.0794 2.67425 0.960146 2.90847 0.862267C2.9319 0.852189 2.9537 0.84258 2.97315 0.833908C3.08917 0.781642 3.26495 0.702658 3.48761 0.787033C3.6362 0.842814 3.76886 0.956955 3.97651 1.16203C4.40237 1.58203 4.98432 2.51742 5.19901 2.9768C5.34315 3.28641 5.43854 3.49078 5.43878 3.72C5.43878 3.98836 5.30378 4.19531 5.13995 4.41867C5.10925 4.46063 5.07878 4.5007 5.04925 4.53961C4.87089 4.77399 4.83175 4.84172 4.85753 4.96266C4.90979 5.2057 5.29956 5.92922 5.94011 6.56836C6.58065 7.2075 7.28331 7.57266 7.52729 7.62469C7.65339 7.65164 7.72253 7.61086 7.9644 7.42617C7.99909 7.39969 8.03471 7.37227 8.07198 7.34485C8.32182 7.15899 8.51917 7.0275 8.7812 7.0275H8.78261C9.01065 7.0275 9.20589 7.12641 9.52932 7.28953C9.9512 7.50235 10.9147 8.0768 11.3373 8.50313C11.5428 8.71031 11.6574 8.8425 11.7135 8.99086C11.7978 9.21422 11.7184 9.3893 11.6666 9.50649C11.6579 9.52594 11.6483 9.54727 11.6382 9.57094C11.5396 9.80474 11.4196 10.029 11.2799 10.2408C11.0307 10.6134 10.7783 10.902 10.3569 11.0981C10.1405 11.2005 9.90369 11.2523 9.66432 11.2498Z" fill="#E0B827"/>
</svg>
